<svg xmlns="http://www.w3.org/2000/svg" width="64" height="48" viewBox="0 0 64 48">
<defs>
 <filter id="s" x="-20%" y="-20%" width="140%" height="150%"><feDropShadow dx="0" dy="1.2" stdDeviation="1.1" flood-color="#7a3b1d" flood-opacity=".18"/></filter>
 <linearGradient id="fur" x1="0" y1="0" x2="1" y2="1"><stop stop-color="#FFB33B"/><stop offset="1" stop-color="#F28B20"/></linearGradient>
</defs>
<g filter="url(#s)" stroke="#542814" stroke-width="2.15" stroke-linecap="round" stroke-linejoin="round">
 <!-- fluffy curled tail -->
 <path d="M48 16c3-6 10-6 11-1 1 4-3 7-7 5 3-1 4-4 2-5-2-1-3 1-3 3" fill="#FFF8E8"/>
 <path d="M50 18c2-3 4-4 6-2" fill="none" stroke="#F39A26" stroke-width="2"/>
 <!-- body -->
 <path d="M23 18c7-5 18-5 25-1 5 3 7 8 4 13-2 4-7 6-13 5l-17-1c-7 0-11-3-11-8 0-4 4-7 12-8z" fill="url(#fur)"/>
 <!-- back highlight -->
 <path d="M29 18c6-2 13-1 18 2" fill="none" stroke="#FFC75A" stroke-width="2" opacity=".8"/>
 <!-- ears behind head -->
 <path d="M14 18 14 6c0-2 2-3 3-1l6 9M26 13l7-9c1-1 3 0 3 2l-1 13" fill="url(#fur)"/>
 <path d="m16.5 11 .2-3 3.2 5M30 11l3.2-4-.2 5" fill="none" stroke="#FF7E75" stroke-width="2.3"/>
 <!-- head -->
 <path d="M9 18c3-6 9-8 15-6 6 2 9 7 8 13-1 6-6 10-13 10-7 0-13-4-13-10 0-3 1-5 3-7z" fill="url(#fur)"/>
 <!-- white muzzle/chest blaze -->
 <path d="M18 13c-1 4-1 7 1 10 2 4 1 8-2 10-5 2-10-1-11-6-.2-4 2-7 5-9 2-2 4-3 7-5z" fill="#FFF9EA"/>
 <path d="M20 25c2 4 6 7 11 8l-7 4c-5 1-9-1-10-5" fill="#FFF9EA"/>
 <!-- eye, brow, cheek -->
 <ellipse cx="14" cy="20" rx="1.65" ry="2" fill="#2D1A11" stroke="none"/>
 <path d="M11.5 16.5c1.3-.8 2.6-.9 3.8-.2" fill="none" stroke-width="1.25"/>
 <ellipse cx="18.2" cy="25" rx="2.3" ry="1.45" fill="#FF8E7C" stroke="none" opacity=".9"/>
 <!-- nose + happy mouth/tongue -->
 <ellipse cx="7.1" cy="23" rx="2" ry="1.5" fill="#332018" stroke="none"/>
 <path d="M8 24.2c1.4 2.2 3.4 2.8 5.4 1.4" fill="none"/>
 <path d="M11 26c.1 3 2.8 3.7 4.2 1.2" fill="#FF7D75"/>
 <!-- four clearly drawn running legs -->
 <path d="M20 32c-2 2-4 5-7 6-2 .7-3-1-1.5-2.2l4-4" fill="#FFF9EA"/>
 <path d="M27 33c-1 2-2 4-4 5-2 1-3-.5-1.8-2l2.8-3.5" fill="#FFF9EA"/>
 <path d="M40 33c2 2 4 4 7 4 2 0 2.4-1.7.6-2.5L44 32" fill="#FFF9EA"/>
 <path d="M47 30c2 1 5 2 7 1.5 1.8-.5 1.5-2-.2-2.2L49 28" fill="#FFF9EA"/>
 <!-- motion accents -->
 <path d="M7 13 3 10M9 9 8 5M4 17 .5 16" fill="none" stroke="#FF9F1C" stroke-width="2.5"/>
</g>
</svg>